<?xml version="1.0" encoding="UTF-8"?>
<svg xmlns="http://www.w3.org/2000/svg" version="1.1" viewBox="0 0 1468.96 514.8">
  <defs>
    <style>
      .cls-1 {
        fill: #fff;
      }
    </style>
  </defs>
  <!-- Generator: Adobe Illustrator 28.7.1, SVG Export Plug-In . SVG Version: 1.2.0 Build 142)  -->
  <g>
    <g id="Layer_1">
      <g>
        <path class="cls-1" d="M1208.43,358.84c32.21-69.21,63.74-136.94,96.14-206.53,31.2,69.48,61.65,137.26,92.74,206.5-10.28,0-19.03.43-27.69-.3-2.26-.19-4.99-3.65-6.18-6.22-5.09-10.96-9.95-22.04-14.34-33.3-2.24-5.74-5.35-8.2-11.76-8.1-22.74.35-45.48.36-68.22,0-6.4-.11-9.53,2.33-11.91,7.97-4.92,11.68-10.31,23.16-15.88,34.54-1.1,2.24-3.8,5.04-5.93,5.19-8.41.6-16.88.25-26.96.25ZM1272.99,283.98h60.84c-9.97-22.75-19.29-44.04-28.61-65.32-.84.1-1.68.2-2.52.3-9.72,21.28-19.44,42.55-29.71,65.02Z"/>
        <path class="cls-1" d="M983.23,192.7c-7.15,4.24-14.37,8.52-22.23,13.18-7.34-13.64-17.81-20.44-32.83-19.15-15.29,1.31-27.24,12.53-25.11,26.1.96,6.12,5.72,13.16,10.87,16.75,8.07,5.64,17.98,8.62,27.03,12.9,7.46,3.52,15.17,6.69,22.12,11.05,22.58,14.15,31.07,37.54,24.09,64.67-6.04,23.46-28.28,42.23-52.17,44.02-37.14,2.78-62.26-15.48-69.16-49.92-.87-4.35-.71-6.67,4.12-7.54,7.51-1.36,14.95-3.07,22.9-4.73,1.09,4.66,1.89,8.93,3.09,13.09,4.08,14.19,15.68,22.91,30.85,23.35,14.46.42,26.97-8.22,31.95-22.07,4.95-13.77,1.51-28.16-10.54-36.29-8.94-6.04-19.29-9.99-29-14.9-7.88-3.98-16.28-7.21-23.49-12.16-31.44-21.62-29.79-63.21,3.14-82.57,24.92-14.65,67.63-12.19,84.36,24.24Z"/>
        <path class="cls-1" d="M636.63,299.99c1.17,4.77,1.96,8.46,3,12.08,5.52,19.19,22.55,28.36,42.18,22.77,16.65-4.75,27.31-23.63,21.19-40.82-2.55-7.17-8.6-14.27-14.97-18.63-8.87-6.07-19.58-9.39-29.38-14.15-6.62-3.21-13.47-6.22-19.44-10.42-31.02-21.84-28.94-64.15,4.23-82.66,24.76-13.81,64.68-12.29,83.95,24.23-7.09,4.23-14.26,8.52-21.96,13.11-2.05-2.71-3.74-5.02-5.51-7.27-11.19-14.14-33.2-15.77-46.47-3.46-11.22,10.4-10.19,25.74,3.51,34.55,8.57,5.52,18.59,8.78,27.9,13.18,7.19,3.4,14.65,6.4,21.36,10.59,23.96,14.96,31.23,35.14,24.44,65.16-5.74,25.38-29.07,43.18-54.55,44.03-35.45,1.18-57.6-14.99-65.82-47.64-1.56-6.18-.85-9.42,6.24-10.27,6.39-.77,12.63-2.7,20.09-4.38Z"/>
        <path class="cls-1" d="M812.16,358.4h-26.74c-.23-2.84-.65-5.64-.66-8.44-.04-34.5.22-69-.2-103.49-.1-8.02,2.62-10.01,10.14-9.9,17.46.27,17.46-.06,17.46,17.29,0,34.46,0,68.93,0,104.53Z"/>
        <path class="cls-1" d="M1067.6,358.3h-26.62c-.23-2.39-.59-4.37-.6-6.35-.03-35.66.09-71.32-.14-106.97-.04-5.99,1.6-8.25,7.87-8.39,19.49-.44,19.48-.67,19.48,18.82,0,30.94,0,61.89,0,92.83,0,3.16,0,6.32,0,10.07Z"/>
        <path class="cls-1" d="M1464.81,358.48h-26.47c-.28-2.55-.74-4.79-.74-7.04-.05-35.37.12-70.74-.17-106.1-.05-6.48,1.72-8.89,8.41-8.75,23.5.51,18.69-2.1,18.89,18.42.31,30.94.08,61.89.08,92.84,0,3.19,0,6.38,0,10.63Z"/>
        <path class="cls-1" d="M815.79,184.25c.01,9.96-8.02,18.29-17.62,18.28-9.59-.01-18.2-8.46-18.39-18.03-.18-9.36,8.44-17.93,18.13-18.01,10.1-.09,17.86,7.63,17.88,17.76Z"/>
        <path class="cls-1" d="M1053.78,166.48c10.34-.14,17.82,7.19,17.94,17.56.12,10.36-7.26,18.28-17.25,18.5-9.88.22-17.77-7.64-17.92-17.84-.15-10.49,7.03-18.09,17.23-18.23Z"/>
        <path class="cls-1" d="M1451.5,166.48c10.17,0,17.52,7.58,17.46,18.02-.05,10.24-7.73,18.08-17.67,18.05-9.88-.03-17.52-7.99-17.53-18.27-.01-10.3,7.46-17.79,17.74-17.8Z"/>
      </g>
      <g>
        <path class="cls-1" d="M417.01,13.06c2.04-4.55,3.46-8.05,5.2-11.39.42-.81,1.87-1.53,2.84-1.54,16.6-.11,33.26-1.23,49.16,5.6,25.16,10.8,42.29,36.23,42.29,63.69,0,125.16.06,250.32-.03,375.48-.03,40.95-33.94,69.93-69.92,69.78-90.83-.36-181.66-.09-272.49-.08-33.83,0-67.67-.48-101.49.14-32.94.6-63.94-22.81-70.1-58.28-.62-3.59-.68-7.3-.67-10.96.11-51,.3-102,.36-152.99,0-4.34.82-6.92,5.93-7.04,4.64-.11,6.43,1.14,6.42,6.14-.08,46,.09,92,.17,137.99.06,35.2,23.87,64.15,58.48,70.85,4.38.85,8.93,1.21,13.4,1.21,115,.07,229.99.09,344.99.07,40.14,0,71.63-31.56,71.64-71.64,0-115.5,0-230.99,0-346.49,0-38.85-31.62-70.48-70.53-70.56-4.81,0-9.61,0-15.65,0Z"/>
        <path class="cls-1" d="M98.95,501.94c-2.08,4.53-3.54,8.01-5.31,11.33-.43.8-1.88,1.51-2.86,1.51-16.6-.05-33.27.9-49.11-6.07C16.62,497.67-.26,472.07,0,444.62c1.21-125.16,2.37-250.31,3.68-375.47C4.11,28.21,38.3-.44,74.27.05c90.82,1.24,181.65,1.86,272.47,2.72,33.83.32,67.66,1.13,101.49.84,32.94-.28,63.72,23.43,69.53,58.96.59,3.59.6,7.31.56,10.96-.6,50.99-1.29,101.99-1.84,152.98-.05,4.34-.89,6.91-5.99,6.98-4.64.06-6.42-1.2-6.36-6.2.52-45.99.8-91.99,1.17-137.99.28-35.2-23.24-64.38-57.79-71.41-4.38-.89-8.92-1.29-13.39-1.34-114.99-1.19-229.98-2.32-344.97-3.42-40.14-.38-71.94,30.86-72.33,70.94-1.12,115.49-2.24,230.98-3.36,346.47-.38,38.85,30.93,70.78,69.84,71.24,4.81.06,9.61.09,15.65.15Z"/>
        <g>
          <path class="cls-1" d="M303.22,226.84c-3.97-5.68-7.92-10.8-11.21-16.32-1.27-2.14-2.07-5.5-1.32-7.71,1.7-4.99,7.67-5.41,11.2-.93,4.32,5.47,8.27,11.22,12.94,17.6,1.89-2.46,3.47-4.44,4.96-6.49,2.76-3.76,5.33-7.66,8.23-11.3,2.46-3.09,5.68-4.12,9.19-1.65,3.48,2.45,3.76,5.86,1.69,9.23-2.53,4.1-5.49,7.94-8.24,11.91-1.21,1.75-2.35,3.55-3.72,5.63,2.31,1.38,4.33,2.47,6.24,3.75,11.39,7.61,16.95,18.47,15.42,31.93-1.75,15.43-11.49,25.77-25.34,29.43-2.33.62-4.82,2.28-6.3,4.18-5,6.44-9.33,13.4-14.46,19.72-1.46,1.8-4.86,3.02-7.22,2.81-1.86-.16-4.43-2.67-4.97-4.6-.55-1.97.52-4.83,1.74-6.76,3.36-5.32,7.17-10.36,11.11-15.95-13.38-6.82-21.73-16.64-21.76-32.13-.03-15.49,8.25-25.37,21.8-32.36ZM293.95,258.97c0,11.77,9.56,21.43,21.12,21.35,11.28-.08,21-9.76,21.18-21.08.18-11.52-9.6-21.47-21.15-21.54-11.75-.07-21.14,9.38-21.14,21.27Z"/>
          <path class="cls-1" d="M241.74,259.54c-.03,15.48-8.38,25.3-21.76,32.13,3.94,5.59,7.75,10.63,11.11,15.95,1.22,1.93,2.29,4.79,1.74,6.76-.54,1.94-3.11,4.44-4.97,4.6-2.36.21-5.75-1-7.22-2.81-5.13-6.32-9.47-13.28-14.46-19.72-1.48-1.91-3.97-3.57-6.3-4.18-13.85-3.65-23.59-14-25.34-29.43-1.53-13.46,4.03-24.31,15.42-31.93,1.91-1.27,3.93-2.37,6.24-3.75-1.37-2.08-2.51-3.88-3.72-5.63-2.75-3.97-5.71-7.8-8.24-11.91-2.07-3.36-1.79-6.78,1.69-9.23,3.51-2.47,6.73-1.44,9.19,1.65,2.9,3.64,5.48,7.54,8.23,11.3,1.5,2.04,3.08,4.03,4.96,6.49,4.67-6.39,8.63-12.14,12.94-17.6,3.54-4.48,9.5-4.07,11.2.93.75,2.2-.05,5.57-1.32,7.71-3.29,5.51-7.24,10.63-11.21,16.32,13.55,6.98,21.83,16.87,21.8,32.36ZM208.07,238.04c-11.55.07-21.33,10.02-21.15,21.54.17,11.32,9.89,21,21.18,21.08,11.56.08,21.12-9.57,21.12-21.35,0-11.89-9.39-21.34-21.14-21.27Z"/>
          <path class="cls-1" d="M250.24,358.12c-4-5.67-8.01-11.35-12-17.04-2.04-2.92-2.54-6.35.21-8.58,1.88-1.52,5.11-2.03,7.65-1.84,1.53.11,3.13,2.26,4.29,3.8,3.79,5.04,7.39,10.22,11.61,16.11,2.27-3.06,4.21-5.62,6.11-8.22,2.26-3.09,4.39-6.28,6.73-9.31,2.47-3.19,6.78-3.95,9.72-1.92,2.99,2.06,3.81,6.28,1.49,9.78-3.85,5.79-7.95,11.42-12.31,17.63,10.57,4.78,17.9,12.07,21.05,22.96,2.05,7.09,1.69,14.13-.83,21.06-4.94,13.56-18.34,22.56-32.96,22.17-14.22-.39-27.13-10.22-31.27-23.82-5.05-16.58.62-28.57,20.53-42.77ZM262.17,369.72c-11.67-.02-21.08,9.2-21.15,20.72-.08,11.86,9.3,21.43,21.04,21.48,11.51.05,21.57-9.99,21.42-21.38-.15-11.33-9.84-20.8-21.31-20.82Z"/>
          <path class="cls-1" d="M271.07,159.22c4,5.67,8.01,11.35,12,17.04,2.04,2.92,2.54,6.35-.21,8.58-1.88,1.52-5.11,2.03-7.65,1.84-1.53-.11-3.13-2.26-4.29-3.8-3.79-5.04-7.39-10.22-11.61-16.11-2.27,3.06-4.21,5.62-6.11,8.22-2.26,3.09-4.39,6.28-6.73,9.31-2.47,3.19-6.78,3.95-9.72,1.92-2.99-2.06-3.81-6.28-1.49-9.78,3.85-5.79,7.95-11.42,12.31-17.63-10.57-4.78-17.9-12.07-21.05-22.96-2.05-7.09-1.69-14.13.83-21.06,4.94-13.56,18.34-22.56,32.96-22.17,14.22.39,27.13,10.22,31.27,23.82,5.05,16.58-.62,28.57-20.53,42.77ZM259.14,147.62c11.67.02,21.08-9.2,21.15-20.72.08-11.86-9.3-21.43-21.04-21.48-11.51-.05-21.57,9.99-21.42,21.38.15,11.33,9.84,20.8,21.31,20.82Z"/>
          <path class="cls-1" d="M152.88,166.78c4.22,5.88,7.82,11.07,11.6,16.11,1.16,1.54,2.76,3.68,4.29,3.8,2.54.19,5.77-.32,7.65-1.84,2.75-2.24,2.26-5.67.21-8.59-3.99-5.69-8-11.37-12-17.04,19.92-14.2,25.59-26.19,20.53-42.77-4.14-13.6-17.05-23.44-31.27-23.82-14.62-.4-28.02,8.61-32.96,22.17-2.53,6.93-2.89,13.97-.84,21.06,3.15,10.89,10.48,18.18,21.05,22.96M152.7,147.62c-11.46-.02-21.16-9.49-21.31-20.82-.15-11.39,9.91-21.44,21.42-21.39,11.75.06,21.12,9.63,21.04,21.49-.07,11.52-9.48,20.74-21.15,20.72Z"/>
          <path class="cls-1" d="M365.55,166.78c-2.27,3.06-4.21,5.62-6.11,8.22-2.26,3.09-4.39,6.28-6.73,9.31-2.47,3.19-6.78,3.95-9.72,1.92-2.99-2.06-3.81-6.28-1.49-9.78,3.85-5.79,7.95-11.42,12.31-17.63-10.57-4.78-17.9-12.07-21.05-22.96-2.05-7.09-1.69-14.13.83-21.06,4.94-13.56,18.34-22.56,32.96-22.17,14.22.39,27.13,10.22,31.27,23.82,5.05,16.58-.62,28.57-20.53,42.77M365.37,147.62c11.67.02,21.08-9.2,21.15-20.72.08-11.86-9.3-21.43-21.04-21.48-11.51-.05-21.57,9.99-21.42,21.38.15,11.33,9.84,20.8,21.31,20.82Z"/>
        </g>
      </g>
    </g>
  </g>
</svg>