<?xml version="1.0" encoding="UTF-8"?>
<svg xmlns="http://www.w3.org/2000/svg" version="1.1" viewBox="0 0 518.34 514.8">
  <defs>
    <style>
      .cls-1 {
        fill: #fff;
      }
    </style>
  </defs>
  <!-- Generator: Adobe Illustrator 28.7.1, SVG Export Plug-In . SVG Version: 1.2.0 Build 142)  -->
  <g>
    <g id="Layer_1">
      <g>
        <path class="cls-1" d="M762.98,1038.36c18.17-39.03,35.95-77.23,54.22-116.47,17.6,39.18,34.76,77.41,52.3,116.46-5.8,0-10.73.25-15.62-.17-1.28-.11-2.81-2.06-3.49-3.51-2.87-6.18-5.61-12.43-8.09-18.78-1.26-3.23-3.01-4.63-6.63-4.57-12.82.2-25.65.21-38.47,0-3.61-.06-5.37,1.31-6.71,4.5-2.77,6.58-5.81,13.06-8.96,19.48-.62,1.26-2.14,2.84-3.35,2.93-4.74.34-9.52.14-15.2.14ZM799.39,996.15h34.31c-5.62-12.83-10.88-24.83-16.14-36.84-.47.06-.95.11-1.42.17-5.48,12-10.96,24-16.75,36.67Z"/>
        <path class="cls-1" d="M635.98,944.67c-4.03,2.39-8.1,4.81-12.53,7.43-4.14-7.69-10.05-11.53-18.51-10.8-8.62.74-15.36,7.07-14.16,14.72.54,3.45,3.22,7.42,6.13,9.45,4.55,3.18,10.14,4.86,15.24,7.27,4.2,1.99,8.55,3.78,12.47,6.23,12.73,7.98,17.52,21.17,13.58,36.47-3.4,13.23-15.95,23.82-29.42,24.83-20.95,1.57-35.11-8.73-39-28.15-.49-2.45-.4-3.76,2.32-4.25,4.23-.77,8.43-1.73,12.92-2.67.61,2.63,1.07,5.04,1.74,7.38,2.3,8,8.84,12.92,17.4,13.17,8.16.24,15.21-4.64,18.02-12.45,2.79-7.76.85-15.88-5.94-20.47-5.04-3.4-10.88-5.63-16.35-8.4-4.44-2.25-9.18-4.06-13.25-6.86-17.73-12.19-16.8-35.65,1.77-46.57,14.05-8.26,38.14-6.88,47.57,13.67Z"/>
        <path class="cls-1" d="M440.51,1005.18c.66,2.69,1.1,4.77,1.69,6.81,3.11,10.82,12.72,16,23.79,12.84,9.39-2.68,15.4-13.33,11.95-23.02-1.44-4.04-4.85-8.05-8.44-10.5-5-3.42-11.04-5.3-16.57-7.98-3.73-1.81-7.6-3.51-10.96-5.88-17.49-12.32-16.32-36.18,2.39-46.62,13.96-7.79,36.48-6.93,47.35,13.66-4,2.39-8.04,4.8-12.38,7.4-1.16-1.53-2.11-2.83-3.11-4.1-6.31-7.97-18.72-8.89-26.21-1.95-6.33,5.87-5.75,14.51,1.98,19.49,4.83,3.11,10.48,4.95,15.73,7.43,4.05,1.92,8.26,3.61,12.05,5.97,13.51,8.43,17.61,19.81,13.78,36.75-3.24,14.31-16.4,24.35-30.76,24.83-19.99.67-32.48-8.45-37.12-26.87-.88-3.48-.48-5.31,3.52-5.79,3.6-.43,7.12-1.52,11.33-2.47Z"/>
        <path class="cls-1" d="M539.51,1038.12h-15.08c-.13-1.6-.37-3.18-.37-4.76-.02-19.45.12-38.91-.12-58.36-.06-4.52,1.48-5.65,5.72-5.58,9.85.15,9.85-.03,9.85,9.75,0,19.44,0,38.87,0,58.95Z"/>
        <path class="cls-1" d="M683.56,1038.06h-15.01c-.13-1.35-.34-2.47-.34-3.58-.02-20.11.05-40.22-.08-60.33-.02-3.38.9-4.65,4.44-4.73,10.99-.25,10.99-.38,10.99,10.61,0,17.45,0,34.9,0,52.35,0,1.78,0,3.56,0,5.68Z"/>
        <path class="cls-1" d="M907.56,1038.16h-14.93c-.16-1.44-.42-2.7-.42-3.97-.03-19.95.07-39.89-.09-59.83-.03-3.65.97-5.01,4.74-4.93,13.26.29,10.54-1.18,10.65,10.39.17,17.45.05,34.9.05,52.36,0,1.8,0,3.6,0,6Z"/>
        <path class="cls-1" d="M541.55,939.91c0,5.61-4.52,10.31-9.94,10.31-5.41,0-10.27-4.77-10.37-10.17-.1-5.28,4.76-10.11,10.23-10.16,5.69-.05,10.07,4.3,10.08,10.02Z"/>
        <path class="cls-1" d="M675.77,929.88c5.83-.08,10.05,4.06,10.12,9.9.07,5.85-4.09,10.31-9.73,10.44-5.57.12-10.02-4.31-10.11-10.06-.09-5.92,3.96-10.2,9.71-10.28Z"/>
        <path class="cls-1" d="M900.06,929.88c5.74,0,9.88,4.27,9.85,10.16-.03,5.78-4.36,10.2-9.97,10.18-5.57-.02-9.88-4.51-9.89-10.3,0-5.81,4.21-10.03,10-10.04Z"/>
      </g>
      <g>
        <path class="cls-1" d="M417.01,13.06c2.04-4.55,3.46-8.05,5.2-11.39.42-.81,1.87-1.53,2.84-1.54,16.6-.11,33.26-1.23,49.16,5.6,25.16,10.8,42.29,36.23,42.29,63.69,0,125.16.06,250.32-.03,375.48-.03,40.95-33.94,69.93-69.92,69.78-90.83-.36-181.66-.09-272.49-.08-33.83,0-67.67-.48-101.49.14-32.94.6-63.94-22.81-70.1-58.28-.62-3.59-.68-7.3-.67-10.96.11-51,.3-102,.36-152.99,0-4.34.82-6.92,5.93-7.04,4.64-.11,6.43,1.14,6.42,6.14-.08,46,.09,92,.17,137.99.06,35.2,23.87,64.15,58.48,70.85,4.38.85,8.93,1.21,13.4,1.21,115,.07,229.99.09,344.99.07,40.14,0,71.63-31.56,71.64-71.64,0-115.5,0-230.99,0-346.49,0-38.85-31.62-70.48-70.53-70.56-4.81,0-9.61,0-15.65,0Z"/>
        <path class="cls-1" d="M98.95,501.94c-2.08,4.53-3.54,8.01-5.31,11.33-.43.8-1.88,1.51-2.86,1.51-16.6-.05-33.27.9-49.11-6.07C16.62,497.67-.26,472.07,0,444.62c1.21-125.16,2.37-250.31,3.68-375.47C4.11,28.21,38.3-.44,74.27.05c90.82,1.24,181.65,1.86,272.47,2.72,33.83.32,67.66,1.13,101.49.84,32.94-.28,63.72,23.43,69.53,58.96.59,3.59.6,7.31.56,10.96-.6,50.99-1.29,101.99-1.84,152.98-.05,4.34-.89,6.91-5.99,6.98-4.64.06-6.42-1.2-6.36-6.2.52-45.99.8-91.99,1.17-137.99.28-35.2-23.24-64.38-57.79-71.41-4.38-.89-8.92-1.29-13.39-1.34-114.99-1.19-229.98-2.32-344.97-3.42-40.14-.38-71.94,30.86-72.33,70.94-1.12,115.49-2.24,230.98-3.36,346.47-.38,38.85,30.93,70.78,69.84,71.24,4.81.06,9.61.09,15.65.15Z"/>
        <g>
          <path class="cls-1" d="M303.22,226.84c-3.97-5.68-7.92-10.8-11.21-16.32-1.27-2.14-2.07-5.5-1.32-7.71,1.7-4.99,7.67-5.41,11.2-.93,4.32,5.47,8.27,11.22,12.94,17.6,1.89-2.46,3.47-4.44,4.96-6.49,2.76-3.76,5.33-7.66,8.23-11.3,2.46-3.09,5.68-4.12,9.19-1.65,3.48,2.45,3.76,5.86,1.69,9.23-2.53,4.1-5.49,7.94-8.24,11.91-1.21,1.75-2.35,3.55-3.72,5.63,2.31,1.38,4.33,2.47,6.24,3.75,11.39,7.61,16.95,18.47,15.42,31.93-1.75,15.43-11.49,25.77-25.34,29.43-2.33.62-4.82,2.28-6.3,4.18-5,6.44-9.33,13.4-14.46,19.72-1.46,1.8-4.86,3.02-7.22,2.81-1.86-.16-4.43-2.67-4.97-4.6-.55-1.97.52-4.83,1.74-6.76,3.36-5.32,7.17-10.36,11.11-15.95-13.38-6.82-21.73-16.64-21.76-32.13-.03-15.49,8.25-25.37,21.8-32.36ZM293.95,258.97c0,11.77,9.56,21.43,21.12,21.35,11.28-.08,21-9.76,21.18-21.08.18-11.52-9.6-21.47-21.15-21.54-11.75-.07-21.14,9.38-21.14,21.27Z"/>
          <path class="cls-1" d="M241.74,259.54c-.03,15.48-8.38,25.3-21.76,32.13,3.94,5.59,7.75,10.63,11.11,15.95,1.22,1.93,2.29,4.79,1.74,6.76-.54,1.94-3.11,4.44-4.97,4.6-2.36.21-5.75-1-7.22-2.81-5.13-6.32-9.47-13.28-14.46-19.72-1.48-1.91-3.97-3.57-6.3-4.18-13.85-3.65-23.59-14-25.34-29.43-1.53-13.46,4.03-24.31,15.42-31.93,1.91-1.27,3.93-2.37,6.24-3.75-1.37-2.08-2.51-3.88-3.72-5.63-2.75-3.97-5.71-7.8-8.24-11.91-2.07-3.36-1.79-6.78,1.69-9.23,3.51-2.47,6.73-1.44,9.19,1.65,2.9,3.64,5.48,7.54,8.23,11.3,1.5,2.04,3.08,4.03,4.96,6.49,4.67-6.39,8.63-12.14,12.94-17.6,3.54-4.48,9.5-4.07,11.2.93.75,2.2-.05,5.57-1.32,7.71-3.29,5.51-7.24,10.63-11.21,16.32,13.55,6.98,21.83,16.87,21.8,32.36ZM208.07,238.04c-11.55.07-21.33,10.02-21.15,21.54.17,11.32,9.89,21,21.18,21.08,11.56.08,21.12-9.57,21.12-21.35,0-11.89-9.39-21.34-21.14-21.27Z"/>
          <path class="cls-1" d="M250.24,358.12c-4-5.67-8.01-11.35-12-17.04-2.04-2.92-2.54-6.35.21-8.58,1.88-1.52,5.11-2.03,7.65-1.84,1.53.11,3.13,2.26,4.29,3.8,3.79,5.04,7.39,10.22,11.61,16.11,2.27-3.06,4.21-5.62,6.11-8.22,2.26-3.09,4.39-6.28,6.73-9.31,2.47-3.19,6.78-3.95,9.72-1.92,2.99,2.06,3.81,6.28,1.49,9.78-3.85,5.79-7.95,11.42-12.31,17.63,10.57,4.78,17.9,12.07,21.05,22.96,2.05,7.09,1.69,14.13-.83,21.06-4.94,13.56-18.34,22.56-32.96,22.17-14.22-.39-27.13-10.22-31.27-23.82-5.05-16.58.62-28.57,20.53-42.77ZM262.17,369.72c-11.67-.02-21.08,9.2-21.15,20.72-.08,11.86,9.3,21.43,21.04,21.48,11.51.05,21.57-9.99,21.42-21.38-.15-11.33-9.84-20.8-21.31-20.82Z"/>
          <path class="cls-1" d="M271.07,159.22c4,5.67,8.01,11.35,12,17.04,2.04,2.92,2.54,6.35-.21,8.58-1.88,1.52-5.11,2.03-7.65,1.84-1.53-.11-3.13-2.26-4.29-3.8-3.79-5.04-7.39-10.22-11.61-16.11-2.27,3.06-4.21,5.62-6.11,8.22-2.26,3.09-4.39,6.28-6.73,9.31-2.47,3.19-6.78,3.95-9.72,1.92-2.99-2.06-3.81-6.28-1.49-9.78,3.85-5.79,7.95-11.42,12.31-17.63-10.57-4.78-17.9-12.07-21.05-22.96-2.05-7.09-1.69-14.13.83-21.06,4.94-13.56,18.34-22.56,32.96-22.17,14.22.39,27.13,10.22,31.27,23.82,5.05,16.58-.62,28.57-20.53,42.77ZM259.14,147.62c11.67.02,21.08-9.2,21.15-20.72.08-11.86-9.3-21.43-21.04-21.48-11.51-.05-21.57,9.99-21.42,21.38.15,11.33,9.84,20.8,21.31,20.82Z"/>
          <path class="cls-1" d="M152.88,166.78c4.22,5.88,7.82,11.07,11.6,16.11,1.16,1.54,2.76,3.68,4.29,3.8,2.54.19,5.77-.32,7.65-1.84,2.75-2.24,2.26-5.67.21-8.59-3.99-5.69-8-11.37-12-17.04,19.92-14.2,25.59-26.19,20.53-42.77-4.14-13.6-17.05-23.44-31.27-23.82-14.62-.4-28.02,8.61-32.96,22.17-2.53,6.93-2.89,13.97-.84,21.06,3.15,10.89,10.48,18.18,21.05,22.96M152.7,147.62c-11.46-.02-21.16-9.49-21.31-20.82-.15-11.39,9.91-21.44,21.42-21.39,11.75.06,21.12,9.63,21.04,21.49-.07,11.52-9.48,20.74-21.15,20.72Z"/>
          <path class="cls-1" d="M365.55,166.78c-2.27,3.06-4.21,5.62-6.11,8.22-2.26,3.09-4.39,6.28-6.73,9.31-2.47,3.19-6.78,3.95-9.72,1.92-2.99-2.06-3.81-6.28-1.49-9.78,3.85-5.79,7.95-11.42,12.31-17.63-10.57-4.78-17.9-12.07-21.05-22.96-2.05-7.09-1.69-14.13.83-21.06,4.94-13.56,18.34-22.56,32.96-22.17,14.22.39,27.13,10.22,31.27,23.82,5.05,16.58-.62,28.57-20.53,42.77M365.37,147.62c11.67.02,21.08-9.2,21.15-20.72.08-11.86-9.3-21.43-21.04-21.48-11.51-.05-21.57,9.99-21.42,21.38.15,11.33,9.84,20.8,21.31,20.82Z"/>
        </g>
      </g>
    </g>
  </g>
</svg>