<?xml version="1.0" encoding="UTF-8"?>
<svg xmlns="http://www.w3.org/2000/svg" version="1.1" viewBox="0 0 518.3 514.8">
  <defs>
    <style>
      .cls-1 {
        fill: #fff;
      }
    </style>
  </defs>
  <!-- Generator: Adobe Illustrator 28.7.1, SVG Export Plug-In . SVG Version: 1.2.0 Build 142)  -->
  <g>
    <g id="Layer_1">
      <g id="Layer_1-2" data-name="Layer_1">
        <g>
          <path class="cls-1" d="M417,13.1c2-4.6,3.5-8.1,5.2-11.4.4-.8,1.9-1.5,2.8-1.5,16.6-.1,33.3-1.2,49.2,5.6,25.2,10.8,42.3,36.2,42.3,63.7,0,125.2,0,250.3,0,375.5,0,41-33.9,69.9-69.9,69.8-90.8-.4-181.7,0-272.5,0-33.8,0-67.7-.5-101.5.1-32.9.6-63.9-22.8-70.1-58.3-.6-3.6-.7-7.3-.7-11,.1-51,.3-102,.4-153,0-4.3.8-6.9,5.9-7,4.6-.1,6.4,1.1,6.4,6.1,0,46,0,92,.2,138,0,35.2,23.9,64.1,58.5,70.9,4.4.9,8.9,1.2,13.4,1.2,115,0,230,0,345,0,40.1,0,71.6-31.6,71.6-71.6V83.6c0-38.8-31.6-70.5-70.5-70.6h-15.6Z"/>
          <path class="cls-1" d="M98.9,501.9c-2.1,4.5-3.5,8-5.3,11.3-.4.8-1.9,1.5-2.9,1.5-16.6,0-33.3.9-49.1-6.1C16.6,497.7-.3,472.1,0,444.6c1.2-125.2,2.4-250.3,3.7-375.5C4.1,28.2,38.3-.4,74.3,0c90.8,1.2,181.6,1.9,272.5,2.7,33.8.3,67.7,1.1,101.5.8,32.9-.3,63.7,23.4,69.5,59,.6,3.6.6,7.3.6,11-.6,51-1.3,102-1.8,153,0,4.3-.9,6.9-6,7-4.6,0-6.4-1.2-6.4-6.2.5-46,.8-92,1.2-138,.3-35.2-23.2-64.4-57.8-71.4-4.4-.9-8.9-1.3-13.4-1.3-115-1.2-230-2.3-345-3.4-40.1-.4-71.9,30.9-72.3,70.9-1.1,115.5-2.2,231-3.4,346.5-.4,38.9,30.9,70.8,69.8,71.2,4.8,0,9.6,0,15.7.1h0Z"/>
          <g>
            <path class="cls-1" d="M303.2,226.8c-4-5.7-7.9-10.8-11.2-16.3-1.3-2.1-2.1-5.5-1.3-7.7,1.7-5,7.7-5.4,11.2-.9,4.3,5.5,8.3,11.2,12.9,17.6,1.9-2.5,3.5-4.4,5-6.5,2.8-3.8,5.3-7.7,8.2-11.3,2.5-3.1,5.7-4.1,9.2-1.6,3.5,2.4,3.8,5.9,1.7,9.2-2.5,4.1-5.5,7.9-8.2,11.9-1.2,1.8-2.4,3.6-3.7,5.6,2.3,1.4,4.3,2.5,6.2,3.8,11.4,7.6,17,18.5,15.4,31.9-1.8,15.4-11.5,25.8-25.3,29.4-2.3.6-4.8,2.3-6.3,4.2-5,6.4-9.3,13.4-14.5,19.7-1.5,1.8-4.9,3-7.2,2.8-1.9-.2-4.4-2.7-5-4.6-.5-2,.5-4.8,1.7-6.8,3.4-5.3,7.2-10.4,11.1-16-13.4-6.8-21.7-16.6-21.8-32.1,0-15.5,8.2-25.4,21.8-32.4h0ZM294,259c0,11.8,9.6,21.4,21.1,21.4,11.3,0,21-9.8,21.2-21.1.2-11.5-9.6-21.5-21.1-21.5-11.8,0-21.1,9.4-21.1,21.3h0Z"/>
            <path class="cls-1" d="M241.7,259.5c0,15.5-8.4,25.3-21.8,32.1,3.9,5.6,7.8,10.6,11.1,16,1.2,1.9,2.3,4.8,1.7,6.8-.5,1.9-3.1,4.4-5,4.6-2.4.2-5.8-1-7.2-2.8-5.1-6.3-9.5-13.3-14.5-19.7-1.5-1.9-4-3.6-6.3-4.2-13.9-3.6-23.6-14-25.3-29.4-1.5-13.5,4-24.3,15.4-31.9,1.9-1.3,3.9-2.4,6.2-3.8-1.4-2.1-2.5-3.9-3.7-5.6-2.8-4-5.7-7.8-8.2-11.9-2.1-3.4-1.8-6.8,1.7-9.2,3.5-2.5,6.7-1.4,9.2,1.6,2.9,3.6,5.5,7.5,8.2,11.3,1.5,2,3.1,4,5,6.5,4.7-6.4,8.6-12.1,12.9-17.6,3.5-4.5,9.5-4.1,11.2.9.8,2.2,0,5.6-1.3,7.7-3.3,5.5-7.2,10.6-11.2,16.3,13.6,7,21.8,16.9,21.8,32.4h0ZM208.1,238c-11.6,0-21.3,10-21.1,21.5.2,11.3,9.9,21,21.2,21.1,11.6,0,21.1-9.6,21.1-21.4s-9.4-21.3-21.1-21.3h0Z"/>
            <path class="cls-1" d="M250.2,358.1c-4-5.7-8-11.4-12-17-2-2.9-2.5-6.4.2-8.6,1.9-1.5,5.1-2,7.6-1.8,1.5.1,3.1,2.3,4.3,3.8,3.8,5,7.4,10.2,11.6,16.1,2.3-3.1,4.2-5.6,6.1-8.2,2.3-3.1,4.4-6.3,6.7-9.3,2.5-3.2,6.8-4,9.7-1.9,3,2.1,3.8,6.3,1.5,9.8-3.9,5.8-8,11.4-12.3,17.6,10.6,4.8,17.9,12.1,21,23,2,7.1,1.7,14.1-.8,21.1-4.9,13.6-18.3,22.6-33,22.2-14.2-.4-27.1-10.2-31.3-23.8-5.1-16.6.6-28.6,20.5-42.8h0ZM262.2,369.7c-11.7,0-21.1,9.2-21.1,20.7,0,11.9,9.3,21.4,21,21.5,11.5,0,21.6-10,21.4-21.4-.1-11.3-9.8-20.8-21.3-20.8h0Z"/>
            <path class="cls-1" d="M271.1,159.2c4,5.7,8,11.4,12,17,2,2.9,2.5,6.4-.2,8.6-1.9,1.5-5.1,2-7.6,1.8-1.5-.1-3.1-2.3-4.3-3.8-3.8-5-7.4-10.2-11.6-16.1-2.3,3.1-4.2,5.6-6.1,8.2-2.3,3.1-4.4,6.3-6.7,9.3-2.5,3.2-6.8,3.9-9.7,1.9-3-2.1-3.8-6.3-1.5-9.8,3.9-5.8,7.9-11.4,12.3-17.6-10.6-4.8-17.9-12.1-21.1-23-2.1-7.1-1.7-14.1.8-21.1,4.9-13.6,18.3-22.6,33-22.2,14.2.4,27.1,10.2,31.3,23.8,5,16.6-.6,28.6-20.5,42.8h0ZM259.1,147.6c11.7,0,21.1-9.2,21.1-20.7,0-11.9-9.3-21.4-21-21.5-11.5,0-21.6,10-21.4,21.4.1,11.3,9.8,20.8,21.3,20.8Z"/>
            <path class="cls-1" d="M152.9,166.8c4.2,5.9,7.8,11.1,11.6,16.1,1.2,1.5,2.8,3.7,4.3,3.8,2.5.2,5.8-.3,7.6-1.8,2.8-2.2,2.3-5.7.2-8.6-4-5.7-8-11.4-12-17,19.9-14.2,25.6-26.2,20.5-42.8-4.1-13.6-17.1-23.4-31.3-23.8-14.6-.4-28,8.6-33,22.2-2.5,6.9-2.9,14-.8,21.1,3.2,10.9,10.5,18.2,21,23M152.7,147.6c-11.5,0-21.2-9.5-21.3-20.8-.1-11.4,9.9-21.4,21.4-21.4,11.8,0,21.1,9.6,21,21.5,0,11.5-9.5,20.7-21.1,20.7h0Z"/>
            <path class="cls-1" d="M365.5,166.8c-2.3,3.1-4.2,5.6-6.1,8.2-2.3,3.1-4.4,6.3-6.7,9.3-2.5,3.2-6.8,3.9-9.7,1.9-3-2.1-3.8-6.3-1.5-9.8,3.9-5.8,8-11.4,12.3-17.6-10.6-4.8-17.9-12.1-21-23-2-7.1-1.7-14.1.8-21.1,4.9-13.6,18.3-22.6,33-22.2,14.2.4,27.1,10.2,31.3,23.8,5,16.6-.6,28.6-20.5,42.8M365.4,147.6c11.7,0,21.1-9.2,21.1-20.7,0-11.9-9.3-21.4-21-21.5-11.5,0-21.6,10-21.4,21.4.1,11.3,9.8,20.8,21.3,20.8h0Z"/>
          </g>
        </g>
      </g>
    </g>
  </g>
</svg>